<svg width="422" height="400" xmlns="http://www.w3.org/2000/svg">
  <defs>
    <linearGradient x1="49.999%" y1="100%" x2="49.999%" y2="0%" id="a">
      <stop stop-color="gray" stop-opacity=".25" offset="0%"/>
      <stop stop-color="gray" stop-opacity=".12" offset="54%"/>
      <stop stop-color="gray" stop-opacity=".1" offset="100%"/>
    </linearGradient>
    <linearGradient x1="50%" y1="100%" x2="50%" y2="0%" id="b">
      <stop stop-color="gray" stop-opacity=".25" offset="0%"/>
      <stop stop-color="gray" stop-opacity=".12" offset="54%"/>
      <stop stop-color="gray" stop-opacity=".1" offset="100%"/>
    </linearGradient>
    <linearGradient x1="59.979%" y1="98.88%" x2="40.077%" y2="1.029%" id="c">
      <stop stop-color="gray" stop-opacity=".25" offset="0%"/>
      <stop stop-color="gray" stop-opacity=".12" offset="54%"/>
      <stop stop-color="gray" stop-opacity=".1" offset="100%"/>
    </linearGradient>
    <linearGradient x1="49.999%" y1="100%" x2="49.999%" y2="0%" id="d">
      <stop stop-color="gray" stop-opacity=".25" offset="0%"/>
      <stop stop-color="gray" stop-opacity=".12" offset="54%"/>
      <stop stop-color="gray" stop-opacity=".1" offset="100%"/>
    </linearGradient>
    <linearGradient x1="50%" y1="100%" x2="50%" y2="0%" id="e">
      <stop stop-color="gray" stop-opacity=".25" offset="0%"/>
      <stop stop-color="gray" stop-opacity=".12" offset="54%"/>
      <stop stop-color="gray" stop-opacity=".1" offset="100%"/>
    </linearGradient>
    <linearGradient x1="50%" y1="99.914%" x2="50%" y2="-.086%" id="f">
      <stop stop-color="gray" stop-opacity=".25" offset="0%"/>
      <stop stop-color="gray" stop-opacity=".12" offset="54%"/>
      <stop stop-color="gray" stop-opacity=".1" offset="100%"/>
    </linearGradient>
  </defs>
  <g fill-rule="nonzero" fill="none">
    <path fill="#E0E0E0" d="M36.556 69.393l219.14-46.956 64.966 302.373-219.14 46.956z"/>
    <path transform="rotate(-12.11 288.8 -13.113)" d="M29.183 19.494l216.465.054.074 298.749-216.464-.055z" opacity=".5" fill="url(#a)"/>
    <path fill="#FAFAFA" d="M44.515 75.285L250.858 31.07l61.383 285.697-206.343 44.214z"/>
    <path fill="url(#b)" transform="rotate(-12.11 147.956 53.116)" d="M95.609 40.437l104.688.03.007 25.327-104.688-.029z"/>
    <path d="M140.406 16.942c-7.773 1.696-12.69 9.623-10.98 17.704 1.71 8.08 9.391 13.266 17.15 11.57 7.757-1.696 12.69-9.623 10.98-17.704-1.71-8.08-9.377-13.266-17.15-11.57zm4.878 23.11c-3.36.814-6.871-.518-8.884-3.37a8.753 8.753 0 01-.29-9.628c1.836-2.972 5.26-4.52 8.663-3.917 3.403.604 6.109 3.238 6.846 6.666a8.651 8.651 0 01-1.071 6.462 8.408 8.408 0 01-5.264 3.787z" fill="url(#c)"/>
    <path fill="#2B62CA" d="M94.964 50.408l100.208-21.472 5.086 23.671L100.05 74.08z"/>
    <path d="M140.468 16.941c-7.776 1.67-12.727 9.327-11.059 17.104 1.67 7.778 9.326 12.73 17.102 11.06 7.777-1.668 12.729-9.325 11.06-17.102a14.403 14.403 0 00-17.103-11.062zm4.764 22.226a8.312 8.312 0 01-8.723-12.642 8.312 8.312 0 0115.107 2.772 8.313 8.313 0 01-6.384 9.87z" fill="#2B62CA"/>
    <path fill="#E0E0E0" d="M133.518 59.834h223.823v309.141H133.518z"/>
    <path d="M.144.061h216.789v298.867H.144z" opacity=".5" transform="translate(136.842 65.374)" fill="url(#d)"/>
    <path fill="#FFF" d="M140.166 67.59h210.526v292.521H140.166z"/>
    <path fill="url(#e)" d="M193.352 54.294h104.155v25.485H193.352z"/>
    <path d="M245.43 29.917c-7.955 0-14.405 6.696-14.405 14.958 0 8.263 6.45 14.959 14.404 14.959 7.955 0 14.405-6.696 14.405-14.959 0-8.262-6.45-14.958-14.405-14.958zm0 23.59c-3.46.083-6.624-1.967-8.005-5.184-1.38-3.218-.703-6.964 1.714-9.475a8.423 8.423 0 019.297-1.964c3.204 1.323 5.3 4.482 5.3 7.991.035 4.695-3.679 8.534-8.307 8.59v.041z" fill="url(#f)"/>
    <path fill="#2B62CA" d="M194.46 53.186h101.939v24.377H194.46z"/>
    <path d="M245.43 29.917a14.404 14.404 0 1014.404 14.404c0-7.955-6.45-14.404-14.404-14.404zm0 22.718a8.314 8.314 0 118.323-8.335 8.314 8.314 0 01-8.323 8.309v.026z" fill="#2B62CA"/>
    <g opacity=".5" fill="#47E6B1">
      <path d="M8.547 377.864h1.894v10.743H8.547z"/>
      <path d="M14.868 382.292v1.893H4.125v-1.893z"/>
    </g>
    <g opacity=".5" fill="#47E6B1">
      <path d="M232.73 0h1.993v10.743h-1.993z"/>
      <path d="M239.38 4.422v1.894h-11.303V4.422z"/>
    </g>
    <path d="M396.507 395.642a2.436 2.436 0 01-1.358-2.943c.028-.087.046-.178.053-.27a1.22 1.22 0 00-2.193-.808 1.173 1.173 0 00-.137.238 2.436 2.436 0 01-2.943 1.358 1.173 1.173 0 00-.27-.053 1.22 1.22 0 00-.808 2.193c.074.054.154.1.238.137a2.436 2.436 0 011.358 2.943 1.173 1.173 0 00-.053.27 1.22 1.22 0 002.192.807c.055-.073.101-.153.138-.237a2.436 2.436 0 012.943-1.358c.087.028.177.046.269.053a1.22 1.22 0 00.808-2.193 1.173 1.173 0 00-.237-.137z" fill="#2B62CA"/>
    <path d="M71.853 290.379a2.436 2.436 0 01-1.358-2.943c.028-.088.046-.178.053-.27a1.22 1.22 0 00-2.193-.808 1.173 1.173 0 00-.137.238 2.436 2.436 0 01-2.943 1.358 1.173 1.173 0 00-.27-.053 1.22 1.22 0 00-.808 2.192c.074.055.154.101.238.138a2.436 2.436 0 011.358 2.942 1.173 1.173 0 00-.053.27 1.22 1.22 0 002.193.808c.055-.073.1-.153.137-.237a2.436 2.436 0 012.943-1.358c.087.028.178.046.27.053a1.22 1.22 0 00.808-2.193 1.173 1.173 0 00-.238-.137zM342.213 34.423a2.436 2.436 0 01-1.358-2.943c.028-.087.046-.178.053-.27a1.22 1.22 0 00-2.193-.808 1.173 1.173 0 00-.137.238 2.436 2.436 0 01-2.943 1.358 1.173 1.173 0 00-.27-.053 1.22 1.22 0 00-.807 2.193c.073.055.153.1.237.137a2.436 2.436 0 011.358 2.943 1.173 1.173 0 00-.053.27 1.22 1.22 0 002.193.808c.055-.074.1-.154.137-.238a2.436 2.436 0 012.943-1.358c.087.028.178.046.27.053a1.22 1.22 0 00.808-2.193 1.173 1.173 0 00-.238-.137z" fill="#FDD835"/>
    <circle fill="#F55F44" cx="417.729" cy="161.219" r="3.878"/>
    <circle fill="#F55F44" cx="119.668" cy="382.825" r="3.878"/>
    <circle fill="#F55F44" cx="377.839" cy="244.321" r="3.878"/>
    <circle fill="#2B62CA" cx="45.429" cy="49.307" r="3.878"/>
    <circle fill="#47E6B1" cx="4.432" cy="154.571" r="3.878"/>
  </g>
</svg>
